<svg xmlns="http://www.w3.org/2000/svg" width="10" height="10" fill="none"><path fill="url(#a)" d="M4.125.584a1 1 0 0 1 1.75 0l.782 1.414a1 1 0 0 0 .686.499l1.587.306a1 1 0 0 1 .54 1.665l-1.103 1.18a1 1 0 0 0-.262.806l.199 1.604a1 1 0 0 1-1.416 1.03l-1.464-.686a1 1 0 0 0-.848 0l-1.464.685a1 1 0 0 1-1.416-1.029l.2-1.604a1 1 0 0 0-.263-.806L.53 4.468a1 1 0 0 1 .54-1.665l1.587-.306a1 1 0 0 0 .686-.499L4.125.584Z"/><defs><linearGradient id="a" x1=".374" x2="10.516" y1="-1" y2="-1" gradientUnits="userSpaceOnUse"><stop stop-color="#A02279"/><stop stop-color="#A02279"/></linearGradient></defs></svg>